<svg xmlns="http://www.w3.org/2000/svg" viewBox="0 0 1920 967" preserveAspectRatio="xMidYMid" width="1920" height="967" xmlns:xlink="http://www.w3.org/1999/xlink" style="shape-rendering:auto;display:block;background-position-x:0%;background-position-y:0%;background-size:auto;background-origin:padding-box;background-clip:border-box;background:scroll rgb(255, 255, 255) none  repeat;width:1920px;height:967px;;animation:none"><g><g transform="matrix(1,0,0,1,0,0)" style="transform:matrix(1, 0, 0, 1, 0, 0);;animation:none"><path stroke-width="0.5" stroke-opacity="0" stroke="rgb(229, 50, 56)" fill="none" d="M 0 512.5 C 320 512.5 640 705.5 960 705.5 C 1280 705.5 1600 512.5 1920 512.5 C 2240 512.5 2560 705.5 2880 705.5 C 3200 705.5 3520 512.5 3840 512.5" transform="matrix(1,0,0,1,0,0)" style="fill:none;stroke:rgb(229, 50, 56);transform:matrix(1, 0, 0, 1, 0, 0);;animation:none"></path></g>
<g transform="matrix(0.9982398278250513,0.05930637523750754,-0.05930637523750754,0.9982398278250513,30.36439771528569,-56.08307698141948)" style="transform:matrix(0.99824, 0.0593064, -0.0593064, 0.99824, 30.3644, -56.0831);;animation:none"><path stroke-width="0.5" stroke-opacity="0" stroke="rgb(229, 50, 56)" fill="none" d="M 0 512.509 C 320 512.509 640 705.491 960 705.491 C 1280 705.491 1600 512.509 1920 512.509 C 2240 512.509 2560 705.491 2880 705.491 C 3200 705.491 3520 512.509 3840 512.509" transform="matrix(1,0,0,1,-5.760000228881836,0)" style="fill:none;stroke:rgb(229, 50, 56);transform:matrix(1, 0, 0, 1, -5.76, 0);;animation:none"></path></g>
<g transform="matrix(0.9929655077123759,0.11840397161203482,-0.11840397161203482,0.9929655077123759,64.00143287053788,-110.26663572648715)" style="transform:matrix(0.992966, 0.118404, -0.118404, 0.992966, 64.0014, -110.267);;animation:none"><path stroke-width="0.5" stroke-opacity="0" stroke="rgb(229, 50, 56)" fill="none" d="M 0 512.537 C 320 512.537 640 705.463 960 705.463 C 1280 705.463 1600 512.537 1920 512.537 C 2240 512.537 2560 705.463 2880 705.463 C 3200 705.463 3520 512.537 3840 512.537" transform="matrix(1,0,0,1,-11.520000457763672,0)" style="fill:none;stroke:rgb(229, 50, 56);transform:matrix(1, 0, 0, 1, -11.52, 0);;animation:none"></path></g>
<g transform="matrix(0.9841956085587484,0.17708473704324398,-0.17708473704324398,0.9841956085587484,100.79268614400996,-162.35992429966905)" style="transform:matrix(0.984196, 0.177085, -0.177085, 0.984196, 100.793, -162.36);;animation:none"><path stroke-width="0.5" stroke-opacity="0" stroke="rgb(229, 50, 56)" fill="none" d="M 0 512.585 C 320 512.585 640 705.415 960 705.415 C 1280 705.415 1600 512.585 1920 512.585 C 2240 512.585 2560 705.415 2880 705.415 C 3200 705.415 3520 512.585 3840 512.585" transform="matrix(1,0,0,1,-17.27998161315918,0)" style="fill:none;stroke:rgb(229, 50, 56);transform:matrix(1, 0, 0, 1, -17.28, 0);;animation:none"></path></g>
<g transform="matrix(0.9719609990129929,0.23514211957381181,-0.23514211957381181,0.9719609990129929,140.60865576146477,-212.17957781364134)" style="transform:matrix(0.971961, 0.235142, -0.235142, 0.971961, 140.609, -212.18);;animation:none"><path stroke-width="0.5" stroke-opacity="0" stroke="rgb(228, 50, 56)" fill="none" d="M 0 512.651 C 320 512.651 640 705.349 960 705.349 C 1280 705.349 1600 512.651 1920 512.651 C 2240 512.651 2560 705.349 2880 705.349 C 3200 705.349 3520 512.651 3840 512.651" transform="matrix(1,0,0,1,-23.040000915527344,0)" style="fill:none;stroke:rgb(228, 50, 56);transform:matrix(1, 0, 0, 1, -23.04, 0);;animation:none"></path></g>
<g transform="matrix(0.9563047559630354,0.29237170472273677,-0.29237170472273677,0.9563047559630354,183.30915350892928,-259.55018604195493)" style="transform:matrix(0.956305, 0.292372, -0.292372, 0.956305, 183.309, -259.55);;animation:none"><path stroke-width="0.5" stroke-opacity="0" stroke="rgb(228, 50, 57)" fill="none" d="M 0 512.738 C 320 512.738 640 705.262 960 705.262 C 1280 705.262 1600 512.738 1920 512.738 C 2240 512.738 2560 705.262 2880 705.262 C 3200 705.262 3520 512.738 3840 512.738" transform="matrix(1,0,0,1,-28.799999237060547,0)" style="fill:none;stroke:rgb(228, 50, 57);transform:matrix(1, 0, 0, 1, -28.8, 0);;animation:none"></path></g>
<g transform="matrix(0.9372819918126503,0.3485720410814829,-0.3485720410814829,0.9372819918126503,228.74386972275272,-304.30500247963994)" style="transform:matrix(0.937282, 0.348572, -0.348572, 0.937282, 228.744, -304.305);;animation:none"><path stroke-width="0.5" stroke-opacity="0" stroke="rgb(227, 50, 57)" fill="none" d="M 0 512.844 C 320 512.844 640 705.155 960 705.155 C 1280 705.155 1600 512.844 1920 512.844 C 2240 512.844 2560 705.155 2880 705.155 C 3200 705.155 3520 512.844 3840 512.844" transform="matrix(1,0,0,1,-34.55998229980469,0)" style="fill:none;stroke:rgb(227, 50, 57);transform:matrix(1, 0, 0, 1, -34.56, 0);;animation:none"></path></g>
<g transform="matrix(0.9149596732233554,0.40354528416896507,-0.40354528416896507,0.9149596732233554,276.7528586012735,-346.28647480569884)" style="transform:matrix(0.91496, 0.403545, -0.403545, 0.91496, 276.753, -346.286);;animation:none"><path stroke-width="0.5" stroke-opacity="0" stroke="rgb(227, 51, 58)" fill="none" d="M 0 512.971 C 320 512.971 640 705.029 960 705.029 C 1280 705.029 1600 512.971 1920 512.971 C 2240 512.971 2560 705.029 2880 705.029 C 3200 705.029 3520 512.971 3840 512.971" transform="matrix(1,0,0,1,-40.31999969482422,0)" style="fill:none;stroke:rgb(227, 51, 58);transform:matrix(1, 0, 0, 1, -40.32, 0);;animation:none"></path></g>
<g transform="matrix(0.8894163672046704,0.4570979389019895,-0.4570979389019895,0.8894163672046704,327.1671409426283,-385.3468348893681)" style="transform:matrix(0.889416, 0.457098, -0.457098, 0.889416, 327.167, -385.347);;animation:none"><path stroke-width="0.5" stroke-opacity="0" stroke="rgb(226, 51, 58)" fill="none" d="M 0 513.119 C 320 513.119 640 704.881 960 704.881 C 1280 704.881 1600 513.119 1920 513.119 C 2240 513.119 2560 704.881 2880 704.881 C 3200 704.881 3520 513.119 3840 513.119" transform="matrix(1,0,0,1,-46.08000183105469,0)" style="fill:none;stroke:rgb(226, 51, 58);transform:matrix(1, 0, 0, 1, -46.08, 0);;animation:none"></path></g>
<g transform="matrix(0.8607420236147953,0.509041421481108,-0.509041421481108,0.8607420236147953,379.80918461591216,-421.3485330396172)" style="transform:matrix(0.860742, 0.509041, -0.509041, 0.860742, 379.809, -421.349);;animation:none"><path stroke-width="0.5" stroke-opacity="0" stroke="rgb(225, 51, 59)" fill="none" d="M 0 513.288 C 320 513.288 640 704.712 960 704.712 C 1280 704.712 1600 513.288 1920 513.288 C 2240 513.288 2560 704.712 2880 704.712 C 3200 704.712 3520 513.288 3840 513.288" transform="matrix(1,0,0,1,-51.83998107910156,0)" style="fill:none;stroke:rgb(225, 51, 59);transform:matrix(1, 0, 0, 1, -51.84, 0);;animation:none"></path></g>
<g transform="matrix(0.8290375725550416,0.5591929034707469,-0.5591929034707469,0.8290375725550416,434.4936991752661,-454.1648536622797)" style="transform:matrix(0.829038, 0.559193, -0.559193, 0.829038, 434.494, -454.165);;animation:none"><path stroke-width="0.5" stroke-opacity="0" stroke="rgb(224, 51, 59)" fill="none" d="M 0 513.478 C 320 513.478 640 704.522 960 704.522 C 1280 704.522 1600 513.478 1920 513.478 C 2240 513.478 2560 704.522 2880 704.522 C 3200 704.522 3520 513.478 3840 513.478" transform="matrix(1,0,0,1,-57.599998474121094,0)" style="fill:none;stroke:rgb(224, 51, 59);transform:matrix(1, 0, 0, 1, -57.6, 0);;animation:none"></path></g>
<g transform="matrix(0.7944146043600208,0.6073758608798275,-0.6073758608798275,0.7944146043600208,491.0282085497767,-483.68028765270446)" style="transform:matrix(0.794415, 0.607376, -0.607376, 0.794415, 491.028, -483.68);;animation:none"><path stroke-width="0.5" stroke-opacity="0" stroke="rgb(223, 51, 60)" fill="none" d="M 0 513.69 C 320 513.69 640 704.31 960 704.31 C 1280 704.31 1600 513.69 1920 513.69 C 2240 513.69 2560 704.31 2880 704.31 C 3200 704.31 3520 513.69 3840 513.69" transform="matrix(1,0,0,1,-63.36000061035156,0)" style="fill:none;stroke:rgb(223, 51, 60);transform:matrix(1, 0, 0, 1, -63.36, 0);;animation:none"></path></g>
<g transform="matrix(0.756995064352578,0.6534205939101064,-0.6534205939101064,0.756995064352578,549.2135953770616,-509.79088376817367)" style="transform:matrix(0.756995, 0.653421, -0.653421, 0.756995, 549.214, -509.791);;animation:none"><path stroke-width="0.5" stroke-opacity="0" stroke="rgb(222, 52, 61)" fill="none" d="M 0 513.925 C 320 513.925 640 704.075 960 704.075 C 1280 704.075 1600 513.925 1920 513.925 C 2240 513.925 2560 704.075 2880 704.075 C 3200 704.075 3520 513.925 3840 513.925" transform="matrix(1,0,0,1,-69.11997985839844,0)" style="fill:none;stroke:rgb(222, 52, 61);transform:matrix(1, 0, 0, 1, -69.12, 0);;animation:none"></path></g>
<g transform="matrix(0.7169105983671679,0.6971651124008066,-0.6971651124008066,0.7169105983671679,608.8451574133088,-532.4047822153)" style="transform:matrix(0.716911, 0.697165, -0.697165, 0.716911, 608.845, -532.405);;animation:none"><path stroke-width="0.5" stroke-opacity="0" stroke="rgb(220, 52, 62)" fill="none" d="M 0 514.182 C 320 514.182 640 703.819 960 703.819 C 1280 703.819 1600 514.182 1920 514.182 C 2240 514.182 2560 703.819 2880 703.819 C 3200 703.819 3520 514.182 3840 514.182" transform="matrix(1,0,0,1,-74.8800048828125,0)" style="fill:none;stroke:rgb(220, 52, 62);transform:matrix(1, 0, 0, 1, -74.88, 0);;animation:none"></path></g>
<g transform="matrix(0.6743024072499785,0.7384553226681247,-0.7384553226681247,0.6743024072499785,669.712837550059,-551.4423236667644)" style="transform:matrix(0.674302, 0.738455, -0.738455, 0.674302, 669.713, -551.442);;animation:none"><path stroke-width="0.5" stroke-opacity="0" stroke="rgb(219, 52, 63)" fill="none" d="M 0 514.461 C 320 514.461 640 703.539 960 703.539 C 1280 703.539 1600 514.461 1920 514.461 C 2240 514.461 2560 703.539 2880 703.539 C 3200 703.539 3520 514.461 3840 514.461" transform="matrix(1,0,0,1,-80.63999938964844,0)" style="fill:none;stroke:rgb(219, 52, 63);transform:matrix(1, 0, 0, 1, -80.64, 0);;animation:none"></path></g>
<g transform="matrix(0.6293203910498375,0.7771459614569709,-0.7771459614569709,0.6293203910498375,731.6024969566015,-566.8365320712885)" style="transform:matrix(0.62932, 0.777146, -0.777146, 0.62932, 731.602, -566.837);;animation:none"><path stroke-width="0.5" stroke-opacity="0" stroke="rgb(217, 53, 64)" fill="none" d="M 0 514.764 C 320 514.764 640 703.236 960 703.236 C 1280 703.236 1600 514.764 1920 514.764 C 2240 514.764 2560 703.236 2880 703.236 C 3200 703.236 3520 514.764 3840 514.764" transform="matrix(1,0,0,1,-86.4000015258789,0)" style="fill:none;stroke:rgb(217, 53, 64);transform:matrix(1, 0, 0, 1, -86.4, 0);;animation:none"></path></g>
<g transform="matrix(0.5821229485031061,0.8131007765498998,-0.8131007765498998,0.5821229485031061,794.2961948988947,-578.5331910891555)" style="transform:matrix(0.582123, 0.813101, -0.813101, 0.582123, 794.296, -578.533);;animation:none"><path stroke-width="0.5" stroke-opacity="0" stroke="rgb(215, 53, 65)" fill="none" d="M 0 515.091 C 320 515.091 640 702.909 960 702.909 C 1280 702.909 1600 515.091 1920 515.091 C 2240 515.091 2560 702.909 2880 702.909 C 3200 702.909 3520 515.091 3840 515.091" transform="matrix(1,0,0,1,-92.16000366210938,0)" style="fill:none;stroke:rgb(215, 53, 65);transform:matrix(1, 0, 0, 1, -92.16, 0);;animation:none"></path></g>
<g transform="matrix(0.5328762873384736,0.8461931590318871,-0.8461931590318871,0.5328762873384736,857.5731565469828,-586.4911175987636)" style="transform:matrix(0.532876, 0.846193, -0.846193, 0.532876, 857.573, -586.491);;animation:none"><path stroke-width="0.5" stroke-opacity="0" stroke="rgb(214, 53, 66)" fill="none" d="M 0 515.442 C 320 515.442 640 702.558 960 702.558 C 1280 702.558 1600 515.442 1920 515.442 C 2240 515.442 2560 702.558 2880 702.558 C 3200 702.558 3520 515.442 3840 515.442" transform="matrix(1,0,0,1,-97.91999816894531,0)" style="fill:none;stroke:rgb(214, 53, 66);transform:matrix(1, 0, 0, 1, -97.92, 0);;animation:none"></path></g>
<g transform="matrix(0.48175366243298595,0.8763066864588017,-0.8763066864588017,0.48175366243298595,921.2107669671641,-590.6823147867983)" style="transform:matrix(0.481754, 0.876307, -0.876307, 0.481754, 921.211, -590.682);;animation:none"><path stroke-width="0.5" stroke-opacity="0" stroke="rgb(211, 54, 68)" fill="none" d="M 0 515.817 C 320 515.817 640 702.183 960 702.183 C 1280 702.183 1600 515.817 1920 515.817 C 2240 515.817 2560 702.183 2880 702.183 C 3200 702.183 3520 515.817 3840 515.817" transform="matrix(1,0,0,1,-103.67997741699219,0)" style="fill:none;stroke:rgb(211, 54, 68);transform:matrix(1, 0, 0, 1, -103.68, 0);;animation:none"></path></g>
<g transform="matrix(0.42893515746041977,0.9033352814400669,-0.9033352814400669,0.42893515746041977,984.9848574142693,-591.0920188145772)" style="transform:matrix(0.428935, 0.903335, -0.903335, 0.428935, 984.985, -591.092);;animation:none"><path stroke-width="0.5" stroke-opacity="0" stroke="rgb(209, 54, 69)" fill="none" d="M 0 516.217 C 320 516.217 640 701.783 960 701.783 C 1280 701.783 1600 516.217 1920 516.217 C 2240 516.217 2560 701.783 2880 701.783 C 3200 701.783 3520 516.217 3840 516.217" transform="matrix(1,0,0,1,-109.44000244140625,0)" style="fill:none;stroke:rgb(209, 54, 69);transform:matrix(1, 0, 0, 1, -109.44, 0);;animation:none"></path></g>
<g transform="matrix(0.37460659341591196,0.9271838545667874,-0.9271838545667874,0.37460659341591196,1048.6710640037663,-587.7187883007093)" style="transform:matrix(0.374607, 0.927184, -0.927184, 0.374607, 1048.67, -587.719);;animation:none"><path stroke-width="0.5" stroke-opacity="0" stroke="rgb(207, 55, 71)" fill="none" d="M 0 516.643 C 320 516.643 640 701.358 960 701.358 C 1280 701.358 1600 516.643 1920 516.643 C 2240 516.643 2560 701.358 2880 701.358 C 3200 701.358 3520 516.643 3840 516.643" transform="matrix(1,0,0,1,-115.19999694824219,0)" style="fill:none;stroke:rgb(207, 55, 71);transform:matrix(1, 0, 0, 1, -115.2, 0);;animation:none"></path></g>
<g transform="matrix(0.31895928405747037,0.9477684185039855,-0.9477684185039855,0.31895928405747037,1112.0451176515055,-580.574495605613)" style="transform:matrix(0.318959, 0.947768, -0.947768, 0.318959, 1112.05, -580.574);;animation:none"><path stroke-width="0.5" stroke-opacity="0" stroke="rgb(204, 55, 73)" fill="none" d="M 0 517.094 C 320 517.094 640 700.906 960 700.906 C 1280 700.906 1600 517.094 1920 517.094 C 2240 517.094 2560 700.906 2880 700.906 C 3200 700.906 3520 517.094 3840 517.094" transform="matrix(1,0,0,1,-120.95999908447266,0)" style="fill:none;stroke:rgb(204, 55, 73);transform:matrix(1, 0, 0, 1, -120.96, 0);;animation:none"></path></g>
<g transform="matrix(0.2621891272409767,0.9650165084373504,-0.9650165084373504,0.2621891272409767,1174.8839196781214,-569.6842911208687)" style="transform:matrix(0.262189, 0.965017, -0.965017, 0.262189, 1174.88, -569.684);;animation:none"><path stroke-width="0.5" stroke-opacity="0" stroke="rgb(202, 56, 74)" fill="none" d="M 0 517.571 C 320 517.571 640 700.429 960 700.429 C 1280 700.429 1600 517.571 1920 517.571 C 2240 517.571 2560 700.429 2880 700.429 C 3200 700.429 3520 517.571 3840 517.571" transform="matrix(1,0,0,1,-126.72000122070312,0)" style="fill:none;stroke:rgb(202, 56, 74);transform:matrix(1, 0, 0, 1, -126.72, 0);;animation:none"></path></g>
<g transform="matrix(0.20449610397942083,0.9788673778695651,-0.9788673778695651,0.20449610397942083,1236.9661173796908,-555.0865490288325)" style="transform:matrix(0.204496, 0.978867, -0.978867, 0.204496, 1236.97, -555.087);;animation:none"><path stroke-width="0.5" stroke-opacity="0" stroke="rgb(199, 57, 76)" fill="none" d="M 0 518.075 C 320 518.075 640 699.925 960 699.925 C 1280 699.925 1600 518.075 1920 518.075 C 2240 518.075 2560 699.925 2880 699.925 C 3200 699.925 3520 518.075 3840 518.075" transform="matrix(1,0,0,1,-132.47998046875,0)" style="fill:none;stroke:rgb(199, 57, 76);transform:matrix(1, 0, 0, 1, -132.48, 0);;animation:none"></path></g>
<g transform="matrix(0.14608305490832746,0.9892723290725616,-0.9892723290725616,0.14608305490832746,1298.0734383945892,-536.8325929578355)" style="transform:matrix(0.146083, 0.989272, -0.989272, 0.146083, 1298.07, -536.833);;animation:none"><path stroke-width="0.5" stroke-opacity="0" stroke="rgb(196, 57, 78)" fill="none" d="M 0 518.606 C 320 518.606 640 699.394 960 699.394 C 1280 699.394 1600 518.606 1920 518.606 C 2240 518.606 2560 699.394 2880 699.394 C 3200 699.394 3520 518.606 3840 518.606" transform="matrix(1,0,0,1,-138.23997497558594,0)" style="fill:none;stroke:rgb(196, 57, 78);transform:matrix(1, 0, 0, 1, -138.24, 0);;animation:none"></path></g>
<g transform="matrix(0.08715574274765814,0.9961946980917455,-0.9961946980917455,0.08715574274765814,1357.990623489607,-514.9867117865684)" style="transform:matrix(0.0871557, 0.996195, -0.996195, 0.0871557, 1357.99, -514.987);;animation:none"><path stroke-width="0.5" stroke-opacity="0" stroke="rgb(192, 58, 81)" fill="none" d="M 0 519.164 C 320 519.164 640 698.836 960 698.836 C 1280 698.836 1600 519.164 1920 519.164 C 2240 519.164 2560 698.836 2880 698.836 C 3200 698.836 3520 519.164 3840 519.164" transform="matrix(1,0,0,1,-144,0)" style="fill:none;stroke:rgb(192, 58, 81);transform:matrix(1, 0, 0, 1, -144, 0);;animation:none"></path></g>
<g transform="matrix(0.027921612102341318,0.9996101157839522,-0.9996101157839522,0.027921612102341318,1416.5067433632933,-489.62581060407615)" style="transform:matrix(0.0279216, 0.99961, -0.99961, 0.0279216, 1416.51, -489.626);;animation:none"><path stroke-width="0.5" stroke-opacity="0" stroke="rgb(189, 59, 83)" fill="none" d="M 0 519.751 C 320 519.751 640 698.249 960 698.249 C 1280 698.249 1600 519.751 1920 519.751 C 2240 519.751 2560 698.249 2880 698.249 C 3200 698.249 3520 519.751 3840 519.751" transform="matrix(1,0,0,1,-149.760009765625,0)" style="fill:none;stroke:rgb(189, 59, 83);transform:matrix(1, 0, 0, 1, -149.76, 0);;animation:none"></path></g>
<g transform="matrix(-0.03141081231506788,0.9995065586926919,-0.9995065586926919,-0.03141081231506788,1473.4158009503817,-460.8391685906489)" style="transform:matrix(-0.0314108, 0.999507, -0.999507, -0.0314108, 1473.42, -460.839);;animation:none"><path stroke-width="0.5" stroke-opacity="0" stroke="rgb(185, 60, 85)" fill="none" d="M 0 520.365 C 320 520.365 640 697.635 960 697.635 C 1280 697.635 1600 520.365 1920 520.365 C 2240 520.365 2560 697.635 2880 697.635 C 3200 697.635 3520 520.365 3840 520.365" transform="matrix(1,0,0,1,-155.52000427246094,0)" style="fill:none;stroke:rgb(185, 60, 85);transform:matrix(1, 0, 0, 1, -155.52, 0);;animation:none"></path></g>
<g transform="matrix(-0.09063252715376845,0.9958844034433522,-0.9958844034433522,-0.09063252715376845,1528.5173351324784,-428.7282004267711)" style="transform:matrix(-0.0906325, 0.995884, -0.995884, -0.0906325, 1528.52, -428.728);;animation:none"><path stroke-width="0.5" stroke-opacity="0" stroke="rgb(182, 60, 88)" fill="none" d="M 0 521.009 C 320 521.009 640 696.991 960 696.991 C 1280 696.991 1600 521.009 1920 521.009 C 2240 521.009 2560 696.991 2880 696.991 C 3200 696.991 3520 521.009 3840 521.009" transform="matrix(1,0,0,1,-161.27999877929688,0)" style="fill:none;stroke:rgb(182, 60, 88);transform:matrix(1, 0, 0, 1, -161.28, 0);;animation:none"></path></g>
<g transform="matrix(-0.14953531711153417,0.9887563850293726,-0.9887563850293726,-0.14953531711153417,1581.6176165887746,-393.4058038047709)" style="transform:matrix(-0.149535, 0.988756, -0.988756, -0.149535, 1581.62, -393.406);;animation:none"><path stroke-width="0.5" stroke-opacity="0" stroke="rgb(178, 61, 91)" fill="none" d="M 0 521.682 C 320 521.682 640 696.318 960 696.318 C 1280 696.318 1600 521.682 1920 521.682 C 2240 521.682 2560 696.318 2880 696.318 C 3200 696.318 3520 521.682 3840 521.682" transform="matrix(1,0,0,1,-167.0399932861328,0)" style="fill:none;stroke:rgb(178, 61, 91);transform:matrix(1, 0, 0, 1, -167.04, 0);;animation:none"></path></g>
<g transform="matrix(-0.20791169081775934,0.9781476007338057,-0.9781476007338057,-0.20791169081775934,1632.529588139844,-354.99639419406685)" style="transform:matrix(-0.207912, 0.978148, -0.978148, -0.207912, 1632.53, -354.996);;animation:none"><path stroke-width="0.5" stroke-opacity="0" stroke="rgb(173, 62, 93)" fill="none" d="M 0 522.385 C 320 522.385 640 695.615 960 695.615 C 1280 695.615 1600 522.385 1920 522.385 C 2240 522.385 2560 695.615 2880 695.615 C 3200 695.615 3520 522.385 3840 522.385" transform="matrix(1,0,0,1,-172.8000030517578,0)" style="fill:none;stroke:rgb(173, 62, 93);transform:matrix(1, 0, 0, 1, -172.8, 0);;animation:none"></path></g>
<g transform="matrix(-0.26555614316222226,0.9640953971619226,-0.9640953971619226,-0.26555614316222226,1681.074021963523,-313.6351860565112)" style="transform:matrix(-0.265556, 0.964095, -0.964095, -0.265556, 1681.07, -313.635);;animation:none"><path stroke-width="0.5" stroke-opacity="0" stroke="rgb(169, 63, 96)" fill="none" d="M 0 523.117 C 320 523.117 640 694.883 960 694.883 C 1280 694.883 1600 523.117 1920 523.117 C 2240 523.117 2560 694.883 2880 694.883 C 3200 694.883 3520 523.117 3840 523.117" transform="matrix(1,0,0,1,-178.5599822998047,0)" style="fill:none;stroke:rgb(169, 63, 96);transform:matrix(1, 0, 0, 1, -178.56, 0);;animation:none"></path></g>
<g transform="matrix(-0.3222657456521001,0.9466492429507858,-0.9466492429507858,-0.3222657456521001,1727.080024792721,-269.46778520996395)" style="transform:matrix(-0.322266, 0.946649, -0.946649, -0.322266, 1727.08, -269.468);;animation:none"><path stroke-width="0.5" stroke-opacity="0" stroke="rgb(165, 64, 99)" fill="none" d="M 0 523.881 C 320 523.881 640 694.119 960 694.119 C 1280 694.119 1600 523.881 1920 523.881 C 2240 523.881 2560 694.119 2880 694.119 C 3200 694.119 3520 523.881 3840 523.881" transform="matrix(1,0,0,1,-184.32000732421875,0)" style="fill:none;stroke:rgb(165, 64, 99);transform:matrix(1, 0, 0, 1, -184.32, 0);;animation:none"></path></g>
<g transform="matrix(-0.37784073750361624,0.925870604935011,-0.925870604935011,-0.37784073750361624,1770.3855454895495,-222.64978415461223)" style="transform:matrix(-0.377841, 0.925871, -0.925871, -0.377841, 1770.39, -222.65);;animation:none"><path stroke-width="0.5" stroke-opacity="0" stroke="rgb(160, 65, 102)" fill="none" d="M 0 524.676 C 320 524.676 640 693.324 960 693.324 C 1280 693.324 1600 524.676 1920 524.676 C 2240 524.676 2560 693.324 2880 693.324 C 3200 693.324 3520 524.676 3840 524.676" transform="matrix(1,0,0,1,-190.0800018310547,0)" style="fill:none;stroke:rgb(160, 65, 102);transform:matrix(1, 0, 0, 1, -190.08, 0);;animation:none"></path></g>
<g transform="matrix(-0.43208572478472906,0.901832537912253,-0.901832537912253,-0.43208572478472906,1810.8383278739143,-173.3457884623465)" style="transform:matrix(-0.432086, 0.901833, -0.901833, -0.432086, 1810.84, -173.346);;animation:none"><path stroke-width="0.5" stroke-opacity="0" stroke="rgb(155, 66, 106)" fill="none" d="M 0 525.502 C 320 525.502 640 692.498 960 692.498 C 1280 692.498 1600 525.502 1920 525.502 C 2240 525.502 2560 692.498 2880 692.498 C 3200 692.498 3520 525.502 3840 525.502" transform="matrix(1,0,0,1,-195.83999633789062,0)" style="fill:none;stroke:rgb(155, 66, 106);transform:matrix(1, 0, 0, 1, -195.84, 0);;animation:none"></path></g>
<g transform="matrix(-0.484809620246337,0.8746197071393959,-0.8746197071393959,-0.484809620246337,1848.2958638383814,-121.7294674647161)" style="transform:matrix(-0.48481, 0.87462, -0.87462, -0.48481, 1848.3, -121.729);;animation:none"><path stroke-width="0.5" stroke-opacity="0" stroke="rgb(150, 67, 109)" fill="none" d="M 0 526.36 C 320 526.36 640 691.64 960 691.64 C 1280 691.64 1600 526.36 1920 526.36 C 2240 526.36 2560 691.64 2880 691.64 C 3200 691.64 3520 526.36 3840 526.36" transform="matrix(1,0,0,1,-201.59999084472656,0)" style="fill:none;stroke:rgb(150, 67, 109);transform:matrix(1, 0, 0, 1, -201.6, 0);;animation:none"></path></g>
<g transform="matrix(-0.5358268174648093,0.8443279112320841,-0.8443279112320841,-0.5358268174648093,1882.6262898469297,-67.98252853856548)" style="transform:matrix(-0.535827, 0.844328, -0.844328, -0.535827, 1882.63, -67.9825);;animation:none"><path stroke-width="0.5" stroke-opacity="0" stroke="rgb(145, 68, 113)" fill="none" d="M 0 527.251 C 320 527.251 640 690.749 960 690.749 C 1280 690.749 1600 527.251 1920 527.251 C 2240 527.251 2560 690.749 2880 690.749 C 3200 690.749 3520 527.251 3840 527.251" transform="matrix(1,0,0,1,-207.35997009277344,0)" style="fill:none;stroke:rgb(145, 68, 113);transform:matrix(1, 0, 0, 1, -207.36, 0);;animation:none"></path></g>
<g transform="matrix(-0.5849577181870869,0.811063787832595,-0.811063787832595,-0.5849577181870869,1913.708750876663,-12.294179575834733)" style="transform:matrix(-0.584958, 0.811064, -0.811064, -0.584958, 1913.71, -12.2942);;animation:none"><path stroke-width="0.5" stroke-opacity="0" stroke="rgb(140, 69, 116)" fill="none" d="M 0 528.175 C 320 528.175 640 689.825 960 689.825 C 1280 689.825 1600 528.175 1920 528.175 C 2240 528.175 2560 689.825 2880 689.825 C 3200 689.825 3520 528.175 3840 528.175" transform="matrix(1,0,0,1,-213.1199951171875,0)" style="fill:none;stroke:rgb(140, 69, 116);transform:matrix(1, 0, 0, 1, -213.12, 0);;animation:none"></path></g>
<g transform="matrix(-0.6320292613888098,0.7749445223680954,-0.7749445223680954,-0.6320292613888098,1941.4337674982314,45.13940640811791)" style="transform:matrix(-0.632029, 0.774945, -0.774945, -0.632029, 1941.43, 45.1394);;animation:none"><path stroke-width="0.5" stroke-opacity="0" stroke="rgb(134, 71, 120)" fill="none" d="M 0 529.133 C 320 529.133 640 688.867 960 688.867 C 1280 688.867 1600 529.133 1920 529.133 C 2240 529.133 2560 688.867 2880 688.867 C 3200 688.867 3520 529.133 3840 529.133" transform="matrix(1,0,0,1,-218.8800048828125,0)" style="fill:none;stroke:rgb(134, 71, 120);transform:matrix(1, 0, 0, 1, -218.88, 0);;animation:none"></path></g>
<g transform="matrix(-0.6768760480964616,0.7360970150145404,-0.7360970150145404,-0.6768760480964616,1965.7039129321333,104.11643484068037)" style="transform:matrix(-0.676876, 0.736097, -0.736097, -0.676876, 1965.7, 104.116);;animation:none"><path stroke-width="0.5" stroke-opacity="0" stroke="rgb(129, 72, 123)" fill="none" d="M 0 530.124 C 320 530.124 640 687.876 960 687.876 C 1280 687.876 1600 530.124 1920 530.124 C 2240 530.124 2560 687.876 2880 687.876 C 3200 687.876 3520 530.124 3840 530.124" transform="matrix(1,0,0,1,-224.63999938964844,0)" style="fill:none;stroke:rgb(129, 72, 123);transform:matrix(1, 0, 0, 1, -224.64, 0);;animation:none"></path></g>
<g transform="matrix(-0.7193398003386512,0.6946583704589971,-0.6946583704589971,-0.7193398003386512,1986.4335304420301,164.42875782310063)" style="transform:matrix(-0.71934, 0.694658, -0.694658, -0.71934, 1986.43, 164.429);;animation:none"><path stroke-width="0.5" stroke-opacity="0" stroke="rgb(124, 73, 127)" fill="none" d="M 0 531.15 C 320 531.15 640 686.85 960 686.85 C 1280 686.85 1600 531.15 1920 531.15 C 2240 531.15 2560 686.85 2880 686.85 C 3200 686.85 3520 531.15 3840 531.15" transform="matrix(1,0,0,1,-230.39999389648438,0)" style="fill:none;stroke:rgb(124, 73, 127);transform:matrix(1, 0, 0, 1, -230.4, 0);;animation:none"></path></g>
<g transform="matrix(-0.7592712380102136,0.6507742981483194,-0.6507742981483194,-0.7592712380102136,2003.5497616445175,225.86431735555152)" style="transform:matrix(-0.759271, 0.650774, -0.650774, -0.759271, 2003.55, 225.864);;animation:none"><path stroke-width="0.5" stroke-opacity="0" stroke="rgb(118, 74, 131)" fill="none" d="M 0 532.211 C 320 532.211 640 685.789 960 685.789 C 1280 685.789 1600 532.211 1920 532.211 C 2240 532.211 2560 685.789 2880 685.789 C 3200 685.789 3520 532.211 3840 532.211" transform="matrix(1,0,0,1,-236.15997314453125,0)" style="fill:none;stroke:rgb(118, 74, 131);transform:matrix(1, 0, 0, 1, -236.16, 0);;animation:none"></path></g>
<g transform="matrix(-0.7965299502270918,0.6045990724366244,-0.6045990724366244,-0.7965299502270918,2016.992403741116,288.2071213956395)" style="transform:matrix(-0.79653, 0.604599, -0.604599, -0.79653, 2016.99, 288.207);;animation:none"><path stroke-width="0.5" stroke-opacity="0" stroke="rgb(113, 75, 134)" fill="none" d="M 0 533.306 C 320 533.306 640 684.694 960 684.694 C 1280 684.694 1600 533.306 1920 533.306 C 2240 533.306 2560 684.694 2880 684.694 C 3200 684.694 3520 533.306 3840 533.306" transform="matrix(1,0,0,1,-241.9199981689453,0)" style="fill:none;stroke:rgb(113, 75, 134);transform:matrix(1, 0, 0, 1, -241.92, 0);;animation:none"></path></g>
<g transform="matrix(-0.8309844396442304,0.556295659761214,-0.556295659761214,-0.8309844396442304,2026.714013553008,351.23714319721995)" style="transform:matrix(-0.830984, 0.556296, -0.556296, -0.830984, 2026.71, 351.237);;animation:none"><path stroke-width="0.5" stroke-opacity="0" stroke="rgb(107, 77, 138)" fill="none" d="M 0 534.438 C 320 534.438 640 683.562 960 683.562 C 1280 683.562 1600 534.438 1920 534.438 C 2240 534.438 2560 683.562 2880 683.562 C 3200 683.562 3520 534.438 3840 534.438" transform="matrix(1,0,0,1,-247.67999267578125,0)" style="fill:none;stroke:rgb(107, 77, 138);transform:matrix(1, 0, 0, 1, -247.68, 0);;animation:none"></path></g>
<g transform="matrix(-0.8625137231132298,0.5060336722406471,-0.5060336722406471,-0.8625137231132298,2032.6804547170536,414.7330597742254)" style="transform:matrix(-0.862514, 0.506034, -0.506034, -0.862514, 2032.68, 414.733);;animation:none"><path stroke-width="0.5" stroke-opacity="0" stroke="rgb(102, 78, 142)" fill="none" d="M 0 535.605 C 320 535.605 640 682.395 960 682.395 C 1280 682.395 1600 535.605 1920 535.605 C 2240 535.605 2560 682.395 2880 682.395 C 3200 682.395 3520 535.605 3840 535.605" transform="matrix(1,0,0,1,-253.44000244140625,0)" style="fill:none;stroke:rgb(102, 78, 142);transform:matrix(1, 0, 0, 1, -253.44, 0);;animation:none"></path></g>
<g transform="matrix(-0.8910065241883678,0.45399049973954686,-0.45399049973954686,-0.8910065241883678,2034.870669844904,478.47077469511083)" style="transform:matrix(-0.891007, 0.45399, -0.45399, -0.891007, 2034.87, 478.471);;animation:none"><path stroke-width="0.5" stroke-opacity="0" stroke="rgb(96, 79, 145)" fill="none" d="M 0 536.809 C 320 536.809 640 681.191 960 681.191 C 1280 681.191 1600 536.809 1920 536.809 C 2240 536.809 2560 681.191 2880 681.191 C 3200 681.191 3520 536.809 3840 536.809" transform="matrix(1,0,0,1,-259.20001220703125,0)" style="fill:none;stroke:rgb(96, 79, 145);transform:matrix(1, 0, 0, 1, -259.2, 0);;animation:none"></path></g>
<g transform="matrix(-0.9163626869144759,0.4003491301737552,-0.4003491301737552,-0.9163626869144759,2033.2769838769075,542.226194156344)" style="transform:matrix(-0.916363, 0.400349, -0.400349, -0.916363, 2033.28, 542.226);;animation:none"><path stroke-width="0.5" stroke-opacity="0" stroke="rgb(91, 80, 149)" fill="none" d="M 0 538.05 C 320 538.05 640 679.95 960 679.95 C 1280 679.95 1600 538.05 1920 538.05 C 2240 538.05 2560 679.95 2880 679.95 C 3200 679.95 3520 538.05 3840 538.05" transform="matrix(1,0,0,1,-264.9599914550781,0)" style="fill:none;stroke:rgb(91, 80, 149);transform:matrix(1, 0, 0, 1, -264.96, 0);;animation:none"></path></g>
<g transform="matrix(-0.9384930411512492,0.345298149011372,-0.345298149011372,-0.9384930411512492,2027.9049745521977,605.7751623457118)" style="transform:matrix(-0.938493, 0.345298, -0.345298, -0.938493, 2027.9, 605.775);;animation:none"><path stroke-width="0.5" stroke-opacity="0" stroke="rgb(86, 81, 152)" fill="none" d="M 0 539.327 C 320 539.327 640 678.673 960 678.673 C 1280 678.673 1600 539.327 1920 539.327 C 2240 539.327 2560 678.673 2880 678.673 C 3200 678.673 3520 539.327 3840 539.327" transform="matrix(1,0,0,1,-270.7200012207031,0)" style="fill:none;stroke:rgb(86, 81, 152);transform:matrix(1, 0, 0, 1, -270.72, 0);;animation:none"></path></g>
<g transform="matrix(-0.9573194821373011,0.289031847934392,-0.289031847934392,-0.9573194821373011,2018.7736013280876,668.8933955963687)" style="transform:matrix(-0.957319, 0.289032, -0.289032, -0.957319, 2018.77, 668.893);;animation:none"><path stroke-width="0.5" stroke-opacity="0" stroke="rgb(81, 82, 156)" fill="none" d="M 0 540.642 C 320 540.642 640 677.358 960 677.358 C 1280 677.358 1600 540.642 1920 540.642 C 2240 540.642 2560 677.358 2880 677.358 C 3200 677.358 3520 540.642 3840 540.642" transform="matrix(1,0,0,1,-276.47998046875,0)" style="fill:none;stroke:rgb(81, 82, 156);transform:matrix(1, 0, 0, 1, -276.48, 0);;animation:none"></path></g>
<g transform="matrix(-0.9727759028966709,0.23174779986780145,-0.23174779986780145,-0.9727759028966709,2005.914928016886,731.359261177451)" style="transform:matrix(-0.972776, 0.231748, -0.231748, -0.972776, 2005.91, 731.359);;animation:none"><path stroke-width="0.5" stroke-opacity="0" stroke="rgb(76, 83, 159)" fill="none" d="M 0 541.995 C 320 541.995 640 676.005 960 676.005 C 1280 676.005 1600 541.995 1920 541.995 C 2240 541.995 2560 676.005 2880 676.005 C 3200 676.005 3520 541.995 3840 541.995" transform="matrix(1,0,0,1,-282.239990234375,0)" style="fill:none;stroke:rgb(76, 83, 159);transform:matrix(1, 0, 0, 1, -282.24, 0);;animation:none"></path></g>
<g transform="matrix(-0.984807753012208,0.17364817766693028,-0.17364817766693028,-0.984807753012208,1989.3743367936806,792.9522980211495)" style="transform:matrix(-0.984808, 0.173648, -0.173648, -0.984808, 1989.37, 792.952);;animation:none"><path stroke-width="0.5" stroke-opacity="0" stroke="rgb(71, 85, 162)" fill="none" d="M 0 543.385 C 320 543.385 640 674.615 960 674.615 C 1280 674.615 1600 543.385 1920 543.385 C 2240 543.385 2560 674.615 2880 674.615 C 3200 674.615 3520 543.385 3840 543.385" transform="matrix(1,0,0,1,-288,0)" style="fill:none;stroke:rgb(71, 85, 162);transform:matrix(1, 0, 0, 1, -288, 0);;animation:none"></path></g>
<g transform="matrix(-0.9933727533565448,0.11493725631333397,-0.11493725631333397,-0.9933727533565448,1969.21000664978,853.4559601870887)" style="transform:matrix(-0.993373, 0.114937, -0.114937, -0.993373, 1969.21, 853.456);;animation:none"><path stroke-width="0.5" stroke-opacity="0" stroke="rgb(66, 86, 166)" fill="none" d="M 0 544.814 C 320 544.814 640 673.186 960 673.186 C 1280 673.186 1600 544.814 1920 544.814 C 2240 544.814 2560 673.186 2880 673.186 C 3200 673.186 3520 544.814 3840 544.814" transform="matrix(1,0,0,1,-293.760009765625,0)" style="fill:none;stroke:rgb(66, 86, 166);transform:matrix(1, 0, 0, 1, -293.76, 0);;animation:none"></path></g>
<g transform="matrix(-0.9984407671552128,0.055821451812992015,-0.055821451812992015,-0.9984407671552128,1945.4928084205858,912.657517179073)" style="transform:matrix(-0.998441, 0.0558215, -0.0558215, -0.998441, 1945.49, 912.658);;animation:none"><path stroke-width="0.5" stroke-opacity="0" stroke="rgb(61, 87, 169)" fill="none" d="M 0 546.28 C 320 546.28 640 671.72 960 671.72 C 1280 671.72 1600 546.28 1920 546.28 C 2240 546.28 2560 671.72 2880 671.72 C 3200 671.72 3520 546.28 3840 546.28" transform="matrix(1,0,0,1,-299.52001953125,0)" style="fill:none;stroke:rgb(61, 87, 169);transform:matrix(1, 0, 0, 1, -299.52, 0);;animation:none"></path></g>
<g transform="matrix(-0.9999939078437123,-0.0034905981523264966,0.0034905981523264966,-0.9999939078437123,1918.306447323314,970.3480286686683)" style="transform:matrix(-0.999994, -0.0034906, 0.0034906, -0.999994, 1918.31, 970.348);;animation:none"><path stroke-width="0.5" stroke-opacity="0" stroke="rgb(57, 88, 172)" fill="none" d="M 0 547.785 C 320 547.785 640 670.215 960 670.215 C 1280 670.215 1600 547.785 1920 547.785 C 2240 547.785 2560 670.215 2880 670.215 C 3200 670.215 3520 547.785 3840 547.785" transform="matrix(1,0,0,1,-305.2799987792969,0)" style="fill:none;stroke:rgb(57, 88, 172);transform:matrix(1, 0, 0, 1, -305.28, 0);;animation:none"></path></g>
<g transform="matrix(-0.9980267217394152,-0.06279062584555105,0.06279062584555105,-0.9980267217394152,1887.7463852735148,1026.3249207727363)" style="transform:matrix(-0.998027, -0.0627906, 0.0627906, -0.998027, 1887.75, 1026.32);;animation:none"><path stroke-width="0.5" stroke-opacity="0" stroke="rgb(53, 88, 174)" fill="none" d="M 0 549.328 C 320 549.328 640 668.672 960 668.672 C 1280 668.672 1600 549.328 1920 549.328 C 2240 549.328 2560 668.672 2880 668.672 C 3200 668.672 3520 549.328 3840 549.328" transform="matrix(1,0,0,1,-311.0400085449219,0)" style="fill:none;stroke:rgb(53, 88, 174);transform:matrix(1, 0, 0, 1, -311.04, 0);;animation:none"></path></g>
<g transform="matrix(-0.9925461516413221,-0.12186934340514731,0.12186934340514731,-0.9925461516413221,1853.9204780392806,1080.3906339875207)" style="transform:matrix(-0.992546, -0.121869, 0.121869, -0.992546, 1853.92, 1080.39);;animation:none"><path stroke-width="0.5" stroke-opacity="0" stroke="rgb(49, 89, 177)" fill="none" d="M 0 550.91 C 320 550.91 640 667.09 960 667.09 C 1280 667.09 1600 550.91 1920 550.91 C 2240 550.91 2560 667.09 2880 667.09 C 3200 667.09 3520 550.91 3840 550.91" transform="matrix(1,0,0,1,-316.8000183105469,0)" style="fill:none;stroke:rgb(49, 89, 177);transform:matrix(1, 0, 0, 1, -316.8, 0);;animation:none"></path></g>
<g transform="matrix(-0.9835714900434428,-0.1805190404741882,0.1805190404741882,-0.9835714900434428,1816.947674372435,1132.3550942912252)" style="transform:matrix(-0.983571, -0.180519, 0.180519, -0.983571, 1816.95, 1132.36);;animation:none"><path stroke-width="0.5" stroke-opacity="0" stroke="rgb(45, 90, 180)" fill="none" d="M 0 552.53 C 320 552.53 640 665.47 960 665.47 C 1280 665.47 1600 552.53 1920 552.53 C 2240 552.53 2560 665.47 2880 665.47 C 3200 665.47 3520 552.53 3840 552.53" transform="matrix(1,0,0,1,-322.55999755859375,0)" style="fill:none;stroke:rgb(45, 90, 180);transform:matrix(1, 0, 0, 1, -322.56, 0);;animation:none"></path></g>
<g transform="matrix(-0.9711342672045742,-0.2385335093043211,0.2385335093043211,-0.9711342672045742,1776.957944767752,1182.03558712556)" style="transform:matrix(-0.971134, -0.238534, 0.238534, -0.971134, 1776.96, 1182.04);;animation:none"><path stroke-width="0.5" stroke-opacity="0" stroke="rgb(41, 91, 182)" fill="none" d="M 0 554.188 C 320 554.188 640 663.812 960 663.812 C 1280 663.812 1600 554.188 1920 554.188 C 2240 554.188 2560 663.812 2880 663.812 C 3200 663.812 3520 554.188 3840 554.188" transform="matrix(1,0,0,1,-328.3199768066406,0)" style="fill:none;stroke:rgb(41, 91, 182);transform:matrix(1, 0, 0, 1, -328.32, 0);;animation:none"></path></g>
<g transform="matrix(-0.9552783778727059,-0.29570799916284285,0.29570799916284285,-0.9552783778727059,1734.0924251625631,1229.2567748977824)" style="transform:matrix(-0.955278, -0.295708, 0.295708, -0.955278, 1734.09, 1229.26);;animation:none"><path stroke-width="0.5" stroke-opacity="0" stroke="rgb(38, 92, 185)" fill="none" d="M 0 555.884 C 320 555.884 640 662.116 960 662.116 C 1280 662.116 1600 555.884 1920 555.884 C 2240 555.884 2560 662.116 2880 662.116 C 3200 662.116 3520 555.884 3840 555.884" transform="matrix(1,0,0,1,-334.0799865722656,0)" style="fill:none;stroke:rgb(38, 92, 185);transform:matrix(1, 0, 0, 1, -334.08, 0);;animation:none"></path></g>
<g transform="matrix(-0.9360594982585285,-0.35184174811979296,0.35184174811979296,-0.9360594982585285,1688.5016331122674,1273.8528456029999)" style="transform:matrix(-0.936059, -0.351842, 0.351842, -0.936059, 1688.5, 1273.85);;animation:none"><path stroke-width="0.5" stroke-opacity="0" stroke="rgb(34, 92, 187)" fill="none" d="M 0 557.618 C 320 557.618 640 660.382 960 660.382 C 1280 660.382 1600 557.618 1920 557.618 C 2240 557.618 2560 660.382 2880 660.382 C 3200 660.382 3520 557.618 3840 557.618" transform="matrix(1,0,0,1,-339.8399963378906,0)" style="fill:none;stroke:rgb(34, 92, 187);transform:matrix(1, 0, 0, 1, -339.84, 0);;animation:none"></path></g>
<g transform="matrix(-0.9135454576426009,-0.4067366430758002,0.4067366430758002,-0.9135454576426009,1640.3464724097475,1315.6664061229658)" style="transform:matrix(-0.913545, -0.406737, 0.406737, -0.913545, 1640.35, 1315.67);;animation:none"><path stroke-width="0.5" stroke-opacity="0" stroke="rgb(31, 93, 189)" fill="none" d="M 0 559.389 C 320 559.389 640 658.611 960 658.611 C 1280 658.611 1600 559.389 1920 559.389 C 2240 559.389 2560 658.611 2880 658.611 C 3200 658.611 3520 559.389 3840 559.389" transform="matrix(1,0,0,1,-345.6000061035156,0)" style="fill:none;stroke:rgb(31, 93, 189);transform:matrix(1, 0, 0, 1, -345.6, 0);;animation:none"></path></g>
<g transform="matrix(-0.8878154341598428,-0.4601996902080333,0.4601996902080333,-0.8878154341598428,1589.796266577865,1354.550465015996)" style="transform:matrix(-0.887815, -0.4602, 0.4602, -0.887815, 1589.8, 1354.55);;animation:none"><path stroke-width="0.5" stroke-opacity="0" stroke="rgb(28, 94, 191)" fill="none" d="M 0 561.197 C 320 561.197 640 656.803 960 656.803 C 1280 656.803 1600 561.197 1920 561.197 C 2240 561.197 2560 656.803 2880 656.803 C 3200 656.803 3520 561.197 3840 561.197" transform="matrix(1,0,0,1,-351.3599853515625,0)" style="fill:none;stroke:rgb(28, 94, 191);transform:matrix(1, 0, 0, 1, -351.36, 0);;animation:none"></path></g>
<g transform="matrix(-0.8589598696576106,-0.5120429106215422,0.5120429106215422,-0.8589598696576106,1537.0287275857904,1390.3682911761352)" style="transform:matrix(-0.85896, -0.512043, 0.512043, -0.85896, 1537.03, 1390.37);;animation:none"><path stroke-width="0.5" stroke-opacity="0" stroke="rgb(26, 94, 193)" fill="none" d="M 0 563.042 C 320 563.042 640 654.958 960 654.958 C 1280 654.958 1600 563.042 1920 563.042 C 2240 563.042 2560 654.958 2880 654.958 C 3200 654.958 3520 563.042 3840 563.042" transform="matrix(1,0,0,1,-357.1199951171875,0)" style="fill:none;stroke:rgb(26, 94, 193);transform:matrix(1, 0, 0, 1, -357.12, 0);;animation:none"></path></g>
<g transform="matrix(-0.8270806042129323,-0.5620833337991538,0.5620833337991538,-0.8270806042129323,1482.230088152524,1422.9934725841404)" style="transform:matrix(-0.827081, -0.562083, 0.562083, -0.827081, 1482.23, 1422.99);;animation:none"><path stroke-width="0.5" stroke-opacity="0" stroke="rgb(23, 95, 195)" fill="none" d="M 0 564.922 C 320 564.922 640 653.078 960 653.078 C 1280 653.078 1600 564.922 1920 564.922 C 2240 564.922 2560 653.078 2880 653.078 C 3200 653.078 3520 564.922 3840 564.922" transform="matrix(1,0,0,1,-362.8800048828125,0)" style="fill:none;stroke:rgb(23, 95, 195);transform:matrix(1, 0, 0, 1, -362.88, 0);;animation:none"></path></g>
<g transform="matrix(-0.7922895783585918,-0.6101452483010621,0.6101452483010621,-0.7922895783585918,1425.5927676706847,1452.3114495053987)" style="transform:matrix(-0.79229, -0.610145, 0.610145, -0.79229, 1425.59, 1452.31);;animation:none"><path stroke-width="0.5" stroke-opacity="0" stroke="rgb(21, 96, 196)" fill="none" d="M 0 566.837 C 320 566.837 640 651.163 960 651.163 C 1280 651.163 1600 566.837 1920 566.837 C 2240 566.837 2560 651.163 2880 651.163 C 3200 651.163 3520 566.837 3840 566.837" transform="matrix(1,0,0,1,-368.6400146484375,0)" style="fill:none;stroke:rgb(21, 96, 196);transform:matrix(1, 0, 0, 1, -368.64, 0);;animation:none"></path></g>
<g transform="matrix(-0.7547095802227721,-0.656059028990507,0.656059028990507,-0.7547095802227721,1367.316656496951,1478.2187498685971)" style="transform:matrix(-0.75471, -0.656059, 0.656059, -0.75471, 1367.32, 1478.22);;animation:none"><path stroke-width="0.5" stroke-opacity="0" stroke="rgb(18, 96, 198)" fill="none" d="M 0 568.787 C 320 568.787 640 649.213 960 649.213 C 1280 649.213 1600 568.787 1920 568.787 C 2240 568.787 2560 649.213 2880 649.213 C 3200 649.213 3520 568.787 3840 568.787" transform="matrix(1,0,0,1,-374.3999938964844,0)" style="fill:none;stroke:rgb(18, 96, 198);transform:matrix(1, 0, 0, 1, -374.4, 0);;animation:none"></path></g>
<g transform="matrix(-0.7144727541654468,-0.6996632644031279,0.6996632644031279,-0.7144727541654468,1307.6066556599167,1500.6243104659961)" style="transform:matrix(-0.714473, -0.699663, 0.699663, -0.714473, 1307.61, 1500.62);;animation:none"><path stroke-width="0.5" stroke-opacity="0" stroke="rgb(16, 96, 199)" fill="none" d="M 0 570.771 C 320 570.771 640 647.229 960 647.229 C 1280 647.229 1600 570.771 1920 570.771 C 2240 570.771 2560 647.229 2880 647.229 C 3200 647.229 3520 570.771 3840 570.771" transform="matrix(1,0,0,1,-380.1600036621094,0)" style="fill:none;stroke:rgb(16, 96, 199);transform:matrix(1, 0, 0, 1, -380.16, 0);;animation:none"></path></g>
<g transform="matrix(-0.6717205498653498,-0.7408046320647517,0.7408046320647517,-0.6717205498653498,1246.6726882674284,1519.4493326420584)" style="transform:matrix(-0.671721, -0.740805, 0.740805, -0.671721, 1246.67, 1519.45);;animation:none"><path stroke-width="0.5" stroke-opacity="0" stroke="rgb(14, 97, 200)" fill="none" d="M 0 572.786 C 320 572.786 640 645.214 960 645.214 C 1280 645.214 1600 572.786 1920 572.786 C 2240 572.786 2560 645.214 2880 645.214 C 3200 645.214 3520 572.786 3840 572.786" transform="matrix(1,0,0,1,-385.91998291015625,0)" style="fill:none;stroke:rgb(14, 97, 200);transform:matrix(1, 0, 0, 1, -385.92, 0);;animation:none"></path></g>
<g transform="matrix(-0.6266038528745107,-0.7793379315565351,0.7793379315565351,-0.6266038528745107,1184.7298088519456,1534.6273771590995)" style="transform:matrix(-0.626604, -0.779338, 0.779338, -0.626604, 1184.73, 1534.63);;animation:none"><path stroke-width="0.5" stroke-opacity="0" stroke="rgb(12, 97, 202)" fill="none" d="M 0 574.833 C 320 574.833 640 643.167 960 643.167 C 1280 643.167 1600 574.833 1920 574.833 C 2240 574.833 2560 643.167 2880 643.167 C 3200 643.167 3520 574.833 3840 574.833" transform="matrix(1,0,0,1,-391.67999267578125,0)" style="fill:none;stroke:rgb(12, 97, 202);transform:matrix(1, 0, 0, 1, -391.68, 0);;animation:none"></path></g>
<g transform="matrix(-0.5792810855100102,-0.8151278574373129,0.8151278574373129,-0.5792810855100102,1121.995523018669,1546.1051479839102)" style="transform:matrix(-0.579281, -0.815128, 0.815128, -0.579281, 1122, 1546.11);;animation:none"><path stroke-width="0.5" stroke-opacity="0" stroke="rgb(11, 98, 203)" fill="none" d="M 0 576.911 C 320 576.911 640 641.089 960 641.089 C 1280 641.089 1600 576.911 1920 576.911 C 2240 576.911 2560 641.089 2880 641.089 C 3200 641.089 3520 576.911 3840 576.911" transform="matrix(1,0,0,1,-397.44000244140625,0)" style="fill:none;stroke:rgb(11, 98, 203);transform:matrix(1, 0, 0, 1, -397.44, 0);;animation:none"></path></g>
<g transform="matrix(-0.529919264233205,-0.848048096156426,0.848048096156426,-0.529919264233205,1058.6912391722449,1553.8421365669235)" style="transform:matrix(-0.529919, -0.848048, 0.848048, -0.529919, 1058.69, 1553.84);;animation:none"><path stroke-width="0.5" stroke-opacity="0" stroke="rgb(9, 98, 204)" fill="none" d="M 0 579.017 C 320 579.017 640 638.983 960 638.983 C 1280 638.983 1600 579.017 1920 579.017 C 2240 579.017 2560 638.983 2880 638.983 C 3200 638.983 3520 579.017 3840 579.017" transform="matrix(1,0,0,1,-403.1999816894531,0)" style="fill:none;stroke:rgb(9, 98, 204);transform:matrix(1, 0, 0, 1, -403.2, 0);;animation:none"></path></g>
<g transform="matrix(-0.4786919514690082,-0.8779829244346342,0.8779829244346342,-0.4786919514690082,995.0395294461023,1557.8111659925144)" style="transform:matrix(-0.478692, -0.877983, 0.877983, -0.478692, 995.04, 1557.81);;animation:none"><path stroke-width="0.5" stroke-opacity="0.014492753623188406" stroke="rgb(8, 98, 205)" fill="none" d="M 0 581.15 C 320 581.15 640 636.85 960 636.85 C 1280 636.85 1600 581.15 1920 581.15 C 2240 581.15 2560 636.85 2880 636.85 C 3200 636.85 3520 581.15 3840 581.15" transform="matrix(1,0,0,1,-408.9599914550781,0)" style="fill:none;stroke:rgb(8, 98, 205);transform:matrix(1, 0, 0, 1, -408.96, 0);;animation:none"></path></g>
<g transform="matrix(-0.42577924337106793,-0.9048270751443952,0.9048270751443952,-0.42577924337106793,931.2641828039102,1557.9982563085307)" style="transform:matrix(-0.425779, -0.904827, 0.904827, -0.425779, 931.264, 1558);;animation:none"><path stroke-width="0.5" stroke-opacity="0.028985507246376812" stroke="rgb(6, 99, 206)" fill="none" d="M 0 583.309 C 320 583.309 640 634.691 960 634.691 C 1280 634.691 1600 583.309 1920 583.309 C 2240 583.309 2560 634.691 2880 634.691 C 3200 634.691 3520 583.309 3840 583.309" transform="matrix(1,0,0,1,-414.719970703125,0)" style="fill:none;stroke:rgb(6, 99, 206);transform:matrix(1, 0, 0, 1, -414.72, 0);;animation:none"></path></g>
<g transform="matrix(-0.3713678850043809,-0.9284858071006648,0.9284858071006648,-0.3713678850043809,867.5902818710342,1554.4027472162563)" style="transform:matrix(-0.371368, -0.928486, 0.928486, -0.371368, 867.59, 1554.4);;animation:none"><path stroke-width="0.5" stroke-opacity="0.043478260869565216" stroke="rgb(5, 99, 206)" fill="none" d="M 0 585.493 C 320 585.493 640 632.507 960 632.507 C 1280 632.507 1600 585.493 1920 585.493 C 2240 585.493 2560 632.507 2880 632.507 C 3200 632.507 3520 585.493 3840 585.493" transform="matrix(1,0,0,1,-420.47998046875,0)" style="fill:none;stroke:rgb(5, 99, 206);transform:matrix(1, 0, 0, 1, -420.48, 0);;animation:none"></path></g>
<g transform="matrix(-0.31564893586671344,-0.9488760452694606,0.9488760452694606,-0.31564893586671344,804.2414105442607,1547.037263950238)" style="transform:matrix(-0.315649, -0.948876, 0.948876, -0.315649, 804.241, 1547.04);;animation:none"><path stroke-width="0.5" stroke-opacity="0.057971014492753624" stroke="rgb(4, 99, 207)" fill="none" d="M 0 587.698 C 320 587.698 640 630.302 960 630.302 C 1280 630.302 1600 587.698 1920 587.698 C 2240 587.698 2560 630.302 2880 630.302 C 3200 630.302 3520 587.698 3840 587.698" transform="matrix(1,0,0,1,-426.239990234375,0)" style="fill:none;stroke:rgb(4, 99, 207);transform:matrix(1, 0, 0, 1, -426.24, 0);;animation:none"></path></g>
<g transform="matrix(-0.25881904510252063,-0.9659258262890683,0.9659258262890683,-0.25881904510252063,741.4411462876553,1535.9278015445743)" style="transform:matrix(-0.258819, -0.965926, 0.965926, -0.258819, 741.441, 1535.93);;animation:none"><path stroke-width="0.5" stroke-opacity="0.07246376811594203" stroke="rgb(3, 99, 208)" fill="none" d="M 0 589.925 C 320 589.925 640 628.075 960 628.075 C 1280 628.075 1600 589.925 1920 589.925 C 2240 589.925 2560 628.075 2880 628.075 C 3200 628.075 3520 589.925 3840 589.925" transform="matrix(1,0,0,1,-432,0)" style="fill:none;stroke:rgb(3, 99, 208);transform:matrix(1, 0, 0, 1, -432, 0);;animation:none"></path></g>
<g transform="matrix(-0.20107802549663117,-0.9795752281792227,0.9795752281792227,-0.20107802549663117,679.4102816521117,1521.113444379675)" style="transform:matrix(-0.201078, -0.979575, 0.979575, -0.201078, 679.41, 1521.11);;animation:none"><path stroke-width="0.5" stroke-opacity="0.08695652173913043" stroke="rgb(3, 99, 208)" fill="none" d="M 0 592.17 C 320 592.17 640 625.83 960 625.83 C 1280 625.83 1600 592.17 1920 592.17 C 2240 592.17 2560 625.83 2880 625.83 C 3200 625.83 3520 592.17 3840 592.17" transform="matrix(1,0,0,1,-437.760009765625,0)" style="fill:none;stroke:rgb(3, 99, 208);transform:matrix(1, 0, 0, 1, -437.76, 0);;animation:none"></path></g>
<g transform="matrix(-0.14262914458019238,-0.9897762005202603,0.9897762005202603,-0.14262914458019238,618.3671858454388,1502.6463439039728)" style="transform:matrix(-0.142629, -0.989776, 0.989776, -0.142629, 618.367, 1502.65);;animation:none"><path stroke-width="0.5" stroke-opacity="0.10144927536231885" stroke="rgb(2, 100, 209)" fill="none" d="M 0 594.431 C 320 594.431 640 623.569 960 623.569 C 1280 623.569 1600 594.431 1920 594.431 C 2240 594.431 2560 623.569 2880 623.569 C 3200 623.569 3520 594.431 3840 594.431" transform="matrix(1,0,0,1,-443.5199890136719,0)" style="fill:none;stroke:rgb(2, 100, 209);transform:matrix(1, 0, 0, 1, -443.52, 0);;animation:none"></path></g>
<g transform="matrix(-0.08367763102663302,-0.9964928770772878,0.9964928770772878,-0.08367763102663302,558.526219718699,1480.5912965955736)" style="transform:matrix(-0.0836776, -0.996493, 0.996493, -0.0836776, 558.526, 1480.59);;animation:none"><path stroke-width="0.5" stroke-opacity="0.11594202898550725" stroke="rgb(1, 100, 209)" fill="none" d="M 0 596.708 C 320 596.708 640 621.292 960 621.292 C 1280 621.292 1600 596.708 1920 596.708 C 2240 596.708 2560 621.292 2880 621.292 C 3200 621.292 3520 596.708 3840 596.708" transform="matrix(1,0,0,1,-449.2799987792969,0)" style="fill:none;stroke:rgb(1, 100, 209);transform:matrix(1, 0, 0, 1, -449.28, 0);;animation:none"></path></g>
<g transform="matrix(-0.02443207165800902,-0.9997014923838505,0.9997014923838505,-0.02443207165800902,500.0991172240969,1455.0263393351438)" style="transform:matrix(-0.0244321, -0.999701, 0.999701, -0.0244321, 500.099, 1455.03);;animation:none"><path stroke-width="0.5" stroke-opacity="0.13043478260869565" stroke="rgb(1, 100, 209)" fill="none" d="M 0 598.996 C 320 598.996 640 619.004 960 619.004 C 1280 619.004 1600 598.996 1920 598.996 C 2240 598.996 2560 619.004 2880 619.004 C 3200 619.004 3520 598.996 3840 598.996" transform="matrix(1,0,0,1,-455.0400085449219,0)" style="fill:none;stroke:rgb(1, 100, 209);transform:matrix(1, 0, 0, 1, -455.04, 0);;animation:none"></path></g>
<g transform="matrix(0.03489949670250128,-0.9993908270190958,0.9993908270190958,0.03489949670250128,443.29101830186596,1426.0412872826726)" style="transform:matrix(0.0348995, -0.999391, 0.999391, 0.0348995, 443.291, 1426.04);;animation:none"><path stroke-width="0.5" stroke-opacity="0.14492753623188406" stroke="rgb(1, 100, 210)" fill="none" d="M 0 601.295 C 320 601.295 640 616.705 960 616.705 C 1280 616.705 1600 601.295 1920 601.295 C 2240 601.295 2560 616.705 2880 616.705 C 3200 616.705 3520 601.295 3840 601.295" transform="matrix(1,0,0,1,-460.79998779296875,0)" style="fill:none;stroke:rgb(1, 100, 210);transform:matrix(1, 0, 0, 1, -460.8, 0);;animation:none"></path></g>
<g transform="matrix(0.09410820726483841,-0.9955619746280983,0.9955619746280983,0.09410820726483841,388.3019062930696,1393.738177430425)" style="transform:matrix(0.0941082, -0.995562, 0.995562, 0.0941082, 388.302, 1393.74);;animation:none"><path stroke-width="0.5" stroke-opacity="0.15942028985507245" stroke="rgb(0, 100, 210)" fill="none" d="M 0 603.601 C 320 603.601 640 614.399 960 614.399 C 1280 614.399 1600 603.601 1920 603.601 C 2240 603.601 2560 614.399 2880 614.399 C 3200 614.399 3520 603.601 3840 603.601" transform="matrix(1,0,0,1,-466.55999755859375,0)" style="fill:none;stroke:rgb(0, 100, 210);transform:matrix(1, 0, 0, 1, -466.56, 0);;animation:none"></path></g>
<g transform="matrix(0.1529856257391246,-0.9882284140406046,0.9882284140406046,0.1529856257391246,335.3253611018081,1358.2307274341138)" style="transform:matrix(0.152986, -0.988228, 0.988228, 0.152986, 335.325, 1358.23);;animation:none"><path stroke-width="0.5" stroke-opacity="0.17391304347826086" stroke="rgb(0, 100, 210)" fill="none" d="M 0 605.913 C 320 605.913 640 612.087 960 612.087 C 1280 612.087 1600 605.913 1920 605.913 C 2240 605.913 2560 612.087 2880 612.087 C 3200 612.087 3520 605.913 3840 605.913" transform="matrix(1,0,0,1,-472.3199768066406,0)" style="fill:none;stroke:rgb(0, 100, 210);transform:matrix(1, 0, 0, 1, -472.32, 0);;animation:none"></path></g>
<g transform="matrix(0.21132500469666216,-0.9774158492627156,0.9774158492627156,0.21132500469666216,284.5474323726813,1319.6435755213708)" style="transform:matrix(0.211325, -0.977416, 0.977416, 0.211325, 284.547, 1319.64);;animation:none"><path stroke-width="0.5" stroke-opacity="0.18840579710144928" stroke="rgb(0, 100, 210)" fill="none" d="M 0 608.228 C 320 608.228 640 609.772 960 609.772 C 1280 609.772 1600 608.228 1920 608.228 C 2240 608.228 2560 609.772 2880 609.772 C 3200 609.772 3520 608.228 3840 608.228" transform="matrix(1,0,0,1,-478.0799865722656,0)" style="fill:none;stroke:rgb(0, 100, 210);transform:matrix(1, 0, 0, 1, -478.08, 0);;animation:none"></path></g>
<g transform="matrix(0.2689199232175469,-0.9631625381505806,0.9631625381505806,0.2689199232175469,236.14778651534925,1278.1132537488734)" style="transform:matrix(0.26892, -0.963163, 0.963163, 0.26892, 236.148, 1278.11);;animation:none"><path stroke-width="0.5" stroke-opacity="0.2028985507246377" stroke="rgb(0, 100, 210)" fill="none" d="M 0 610.544 C 320 610.544 640 607.456 960 607.456 C 1280 607.456 1600 610.544 1920 610.544 C 2240 610.544 2560 607.456 2880 607.456 C 3200 607.456 3520 610.544 3840 610.544" transform="matrix(1,0,0,1,-483.8399963378906,0)" style="fill:none;stroke:rgb(0, 100, 210);transform:matrix(1, 0, 0, 1, -483.84, 0);;animation:none"></path></g>
<g transform="matrix(0.3255681544571563,-0.945518575599317,0.945518575599317,0.3255681544571563,190.29634041886015,1233.7856298953093)" style="transform:matrix(0.325568, -0.945519, 0.945519, 0.325568, 190.296, 1233.79);;animation:none"><path stroke-width="0.5" stroke-opacity="0.21739130434782608" stroke="rgb(0, 100, 210)" fill="none" d="M 0 612.858 C 320 612.858 640 605.142 960 605.142 C 1280 605.142 1600 612.858 1920 612.858 C 2240 612.858 2560 605.142 2880 605.142 C 3200 605.142 3520 612.858 3840 612.858" transform="matrix(1,0,0,1,-489.5999755859375,0)" style="fill:none;stroke:rgb(0, 100, 210);transform:matrix(1, 0, 0, 1, -489.6, 0);;animation:none"></path></g>
<g transform="matrix(0.3810702778616713,-0.9245460742063797,0.9245460742063797,0.3810702778616713,147.15450637401102,1186.8167518920063)" style="transform:matrix(0.38107, -0.924546, 0.924546, 0.38107, 147.155, 1186.82);;animation:none"><path stroke-width="0.5" stroke-opacity="0.2318840579710145" stroke="rgb(0, 100, 210)" fill="none" d="M 0 615.169 C 320 615.169 640 602.831 960 602.831 C 1280 602.831 1600 615.169 1920 615.169 C 2240 615.169 2560 602.831 2880 602.831 C 3200 602.831 3520 615.169 3840 615.169" transform="matrix(1,0,0,1,-495.3599853515625,0)" style="fill:none;stroke:rgb(0, 100, 210);transform:matrix(1, 0, 0, 1, -495.36, 0);;animation:none"></path></g>
<g transform="matrix(0.43523090755680405,-0.9003188641294154,0.9003188641294154,0.43523090755680405,106.87415793889568,1137.371965760524)" style="transform:matrix(0.435231, -0.900319, 0.900319, 0.435231, 106.874, 1137.37);;animation:none"><path stroke-width="0.5" stroke-opacity="0.2463768115942029" stroke="rgb(1, 100, 209)" fill="none" d="M 0 617.473 C 320 617.473 640 600.527 960 600.527 C 1280 600.527 1600 617.473 1920 617.473 C 2240 617.473 2560 600.527 2880 600.527 C 3200 600.527 3520 617.473 3840 617.473" transform="matrix(1,0,0,1,-501.1199645996094,0)" style="fill:none;stroke:rgb(1, 100, 209);transform:matrix(1, 0, 0, 1, -501.12, 0);;animation:none"></path></g>
<g transform="matrix(0.48785984511729064,-0.8729219733298809,0.8729219733298809,0.48785984511729064,69.59677458240355,1085.6248592824757)" style="transform:matrix(0.48786, -0.872922, 0.872922, 0.48786, 69.5968, 1085.62);;animation:none"><path stroke-width="0.5" stroke-opacity="0.2608695652173913" stroke="rgb(1, 100, 209)" fill="none" d="M 0 619.768 C 320 619.768 640 598.232 960 598.232 C 1280 598.232 1600 619.768 1920 619.768 C 2240 619.768 2560 598.232 2880 598.232 C 3200 598.232 3520 619.768 3840 619.768" transform="matrix(1,0,0,1,-506.8800048828125,0)" style="fill:none;stroke:rgb(1, 100, 209);transform:matrix(1, 0, 0, 1, -506.88, 0);;animation:none"></path></g>
<g transform="matrix(0.5387708747503177,-0.8424523396138072,0.8424523396138072,0.5387708747503177,35.45425403641923,1031.7585280874764)" style="transform:matrix(0.538771, -0.842452, 0.842452, 0.538771, 35.4543, 1031.76);;animation:none"><path stroke-width="0.5" stroke-opacity="0.2753623188405797" stroke="rgb(2, 100, 209)" fill="none" d="M 0 622.053 C 320 622.053 640 595.947 960 595.947 C 1280 595.947 1600 622.053 1920 622.053 C 2240 622.053 2560 595.947 2880 595.947 C 3200 595.947 3520 622.053 3840 622.053" transform="matrix(1,0,0,1,-512.6399536132812,0)" style="fill:none;stroke:rgb(2, 100, 209);transform:matrix(1, 0, 0, 1, -512.64, 0);;animation:none"></path></g>
<g transform="matrix(0.5877852522924729,-0.8090169943749476,0.8090169943749476,0.5877852522924729,4.566441018938804,975.962145116539)" style="transform:matrix(0.587785, -0.809017, 0.809017, 0.587785, 4.56644, 975.962);;animation:none"><path stroke-width="0.5" stroke-opacity="0.2898550724637681" stroke="rgb(2, 101, 208)" fill="none" d="M 0 624.324 C 320 624.324 640 593.676 960 593.676 C 1280 593.676 1600 624.324 1920 624.324 C 2240 624.324 2560 593.676 2880 593.676 C 3200 593.676 3520 624.324 3840 624.324" transform="matrix(1,0,0,1,-518.4000244140625,0)" style="fill:none;stroke:rgb(2, 101, 208);transform:matrix(1, 0, 0, 1, -518.4, 0);;animation:none"></path></g>
<g transform="matrix(0.6347304308857042,-0.7727336411129311,0.7727336411129311,0.6347304308857042,-22.957929128378282,918.4321321351758)" style="transform:matrix(0.63473, -0.772734, 0.772734, 0.63473, -22.9579, 918.432);;animation:none"><path stroke-width="0.5" stroke-opacity="0.30434782608695654" stroke="rgb(3, 101, 207)" fill="none" d="M 0 626.581 C 320 626.581 640 591.419 960 591.419 C 1280 591.419 1600 626.581 1920 626.581 C 2240 626.581 2560 591.419 2880 591.419 C 3200 591.419 3520 626.581 3840 626.581" transform="matrix(1,0,0,1,-524.1600341796875,0)" style="fill:none;stroke:rgb(3, 101, 207);transform:matrix(1, 0, 0, 1, -524.16, 0);;animation:none"></path></g>
<g transform="matrix(0.6794411479382353,-0.7337300092597911,0.7337300092597911,0.6794411479382353,-47.021961497814914,859.3710138612628)" style="transform:matrix(0.679441, -0.73373, 0.73373, 0.679441, -47.022, 859.371);;animation:none"><path stroke-width="0.5" stroke-opacity="0.3188405797101449" stroke="rgb(4, 101, 207)" fill="none" d="M 0 628.82 C 320 628.82 640 589.18 960 589.18 C 1280 589.18 1600 628.819 1920 628.819 C 2240 628.819 2560 589.18 2880 589.18 C 3200 589.18 3520 628.819 3840 628.819" transform="matrix(1,0,0,1,-529.9199829101562,0)" style="fill:none;stroke:rgb(4, 101, 207);transform:matrix(1, 0, 0, 1, -529.92, 0);;animation:none"></path></g>
<g transform="matrix(0.721760375561447,-0.692143020097291,0.692143020097291,0.721760375561447,-67.54111075602941,798.9861577094398)" style="transform:matrix(0.72176, -0.692143, 0.692143, 0.72176, -67.5411, 798.986);;animation:none"><path stroke-width="0.5" stroke-opacity="0.3333333333333333" stroke="rgb(5, 101, 206)" fill="none" d="M 0 631.039 C 320 631.039 640 586.961 960 586.961 C 1280 586.961 1600 631.039 1920 631.039 C 2240 631.039 2560 586.961 2880 586.961 C 3200 586.961 3520 631.039 3840 631.039" transform="matrix(1,0,0,1,-535.6800537109375,0)" style="fill:none;stroke:rgb(5, 101, 206);transform:matrix(1, 0, 0, 1, -535.68, 0);;animation:none"></path></g>
<g transform="matrix(0.7615383765786407,-0.6481198199391595,0.6481198199391595,0.7615383765786407,-84.44277445607872,737.4912220658202)" style="transform:matrix(0.761538, -0.64812, 0.64812, 0.761538, -84.4428, 737.491);;animation:none"><path stroke-width="0.5" stroke-opacity="0.34782608695652173" stroke="rgb(6, 102, 205)" fill="none" d="M 0 633.238 C 320 633.238 640 584.762 960 584.762 C 1280 584.762 1600 633.238 1920 633.238 C 2240 633.238 2560 584.762 2880 584.762 C 3200 584.762 3520 633.238 3840 633.238" transform="matrix(1,0,0,1,-541.4400024414062,0)" style="fill:none;stroke:rgb(6, 102, 205);transform:matrix(1, 0, 0, 1, -541.44, 0);;animation:none"></path></g>
<g transform="matrix(0.7986355100472928,-0.6018150231520483,0.6018150231520483,0.7986355100472928,-97.66765333941657,675.1021531181003)" style="transform:matrix(0.798636, -0.601815, 0.601815, 0.798636, -97.6677, 675.102);;animation:none"><path stroke-width="0.5" stroke-opacity="0.36231884057971014" stroke="rgb(7, 102, 204)" fill="none" d="M 0 635.413 C 320 635.413 640 582.587 960 582.587 C 1280 582.587 1600 635.413 1920 635.413 C 2240 635.413 2560 582.587 2880 582.587 C 3200 582.587 3520 635.413 3840 635.413" transform="matrix(1,0,0,1,-547.2000122070312,0)" style="fill:none;stroke:rgb(7, 102, 204);transform:matrix(1, 0, 0, 1, -547.2, 0);;animation:none"></path></g>
<g transform="matrix(0.832921181759261,-0.5533916379714787,0.5533916379714787,0.832921181759261,-107.16919144810049,612.0385810720168)" style="transform:matrix(0.832921, -0.553392, 0.553392, 0.832921, -107.169, 612.039);;animation:none"><path stroke-width="0.5" stroke-opacity="0.37681159420289856" stroke="rgb(9, 103, 203)" fill="none" d="M 0 637.564 C 320 637.564 640 580.436 960 580.436 C 1280 580.436 1600 637.564 1920 637.564 C 2240 637.564 2560 580.436 2880 580.436 C 3200 580.436 3520 637.564 3840 637.564" transform="matrix(1,0,0,1,-552.9599609375,0)" style="fill:none;stroke:rgb(9, 103, 203);transform:matrix(1, 0, 0, 1, -552.96, 0);;animation:none"></path></g>
<g transform="matrix(0.8642746947838329,-0.5030201307664659,0.5030201307664659,0.8642746947838329,-112.91394021806582,548.5225106078241)" style="transform:matrix(0.864275, -0.50302, 0.50302, 0.864275, -112.914, 548.523);;animation:none"><path stroke-width="0.5" stroke-opacity="0.391304347826087" stroke="rgb(10, 103, 201)" fill="none" d="M 0 639.688 C 320 639.688 640 578.312 960 578.312 C 1280 578.312 1600 639.688 1920 639.688 C 2240 639.688 2560 578.312 2880 578.312 C 3200 578.312 3520 639.688 3840 639.688" transform="matrix(1,0,0,1,-558.719970703125,0)" style="fill:none;stroke:rgb(10, 103, 201);transform:matrix(1, 0, 0, 1, -558.72, 0);;animation:none"></path></g>
<g transform="matrix(0.892585914512867,-0.4508773505214351,0.4508773505214351,0.892585914512867,-114.88167690946602,484.77696683360654)" style="transform:matrix(0.892586, -0.450877, 0.450877, 0.892586, -114.882, 484.777);;animation:none"><path stroke-width="0.5" stroke-opacity="0.4057971014492754" stroke="rgb(12, 104, 200)" fill="none" d="M 0 641.785 C 320 641.785 640 576.215 960 576.215 C 1280 576.215 1600 641.785 1920 641.785 C 2240 641.785 2560 576.215 2880 576.215 C 3200 576.215 3520 641.785 3840 641.785" transform="matrix(1,0,0,1,-564.47998046875,0)" style="fill:none;stroke:rgb(12, 104, 200);transform:matrix(1, 0, 0, 1, -564.48, 0);;animation:none"></path></g>
<g transform="matrix(0.9177546679907281,-0.39714779286964247,0.39714779286964247,0.9177546679907281,-113.0654391235712,421.02749918133975)" style="transform:matrix(0.917755, -0.397148, 0.397148, 0.917755, -113.065, 421.027);;animation:none"><path stroke-width="0.5" stroke-opacity="0.42028985507246375" stroke="rgb(14, 104, 198)" fill="none" d="M 0 643.852 C 320 643.852 640 574.148 960 574.148 C 1280 574.148 1600 643.852 1920 643.852 C 2240 643.852 2560 574.148 2880 574.148 C 3200 574.148 3520 643.852 3840 643.852" transform="matrix(1,0,0,1,-570.239990234375,0)" style="fill:none;stroke:rgb(14, 104, 198);transform:matrix(1, 0, 0, 1, -570.24, 0);;animation:none"></path></g>
<g></g></g><!-- [ldio] generated by https://loading.io --></svg>